<?xml version="1.0" encoding="iso-8859-1"?>
<!-- Uploaded to: SVG Repo, www.svgrepo.com, Generator: SVG Repo Mixer Tools -->
<!DOCTYPE svg PUBLIC "-//W3C//DTD SVG 1.1//EN" "http://www.w3.org/Graphics/SVG/1.1/DTD/svg11.dtd">
<svg fill="#000000" height="800px" width="800px" version="1.1" id="Capa_1" xmlns="http://www.w3.org/2000/svg" xmlns:xlink="http://www.w3.org/1999/xlink" 
	 viewBox="0 0 297 297" xml:space="preserve">
<g>
	<path d="M110.194,199.303c-7.897-8.085-18.455-13.49-30.515-15.797c17.042-5.709,29.361-21.814,29.361-40.753
		c0-23.696-19.279-42.976-42.976-42.976S23.09,119.057,23.09,142.753c0,18.939,12.319,35.044,29.36,40.753
		c-12.059,2.307-22.616,7.711-30.514,15.795C11.504,209.98,6.201,224.721,6.602,241.93c0.126,5.428,4.563,9.762,9.992,9.762h98.943
		c5.429,0,9.865-4.334,9.991-9.762C125.93,224.721,120.627,209.98,110.194,199.303z"/>
	<path d="M275.064,139.336c-7.897-8.084-18.455-13.489-30.515-15.797c17.042-5.708,29.361-21.813,29.361-40.752
		c0-23.696-19.279-42.976-42.976-42.976s-42.976,19.279-42.976,42.976c0,18.938,12.319,35.044,29.36,40.752
		c-12.059,2.308-22.616,7.712-30.514,15.796c-10.433,10.679-15.735,25.42-15.334,42.629c0.126,5.427,4.563,9.762,9.991,9.762h98.943
		c5.429,0,9.866-4.335,9.992-9.762C290.799,164.755,285.496,150.014,275.064,139.336z"/>
	<path d="M48.472,90.278c1.754,1.241,3.771,1.839,5.768,1.839c3.132,0,6.217-1.469,8.165-4.22
		c19.613-27.695,51.442-44.31,85.276-44.574l-6.248,6.247c-3.903,3.903-3.903,10.231,0,14.135c1.952,1.951,4.51,2.927,7.067,2.927
		s5.115-0.976,7.067-2.927l23.321-23.321c3.903-3.903,3.903-10.231,0-14.135L155.568,2.926c-3.904-3.901-10.23-3.901-14.135,0
		c-3.903,3.903-3.903,10.232,0,14.135l6.271,6.273C107.39,23.59,69.45,43.36,46.091,76.345
		C42.902,80.849,43.968,87.087,48.472,90.278z"/>
	<path d="M248.94,206.516c-4.528-3.158-10.758-2.048-13.915,2.479c-18.145,26.01-46.938,42.375-78.213,44.855l6.418-6.418
		c3.903-3.903,3.903-10.232,0-14.135c-3.903-3.902-10.23-3.902-14.134,0l-23.321,23.32c-3.902,3.903-3.902,10.231,0,14.135
		l23.321,23.32c1.952,1.951,4.509,2.928,7.067,2.928c2.558,0,5.115-0.977,7.066-2.928c3.903-3.902,3.903-10.231,0-14.134
		l-6.07-6.071c37.679-2.613,72.444-22.165,94.258-53.437C254.575,215.904,253.466,209.673,248.94,206.516z"/>
</g>
</svg>